<svg version="1.2" xmlns="http://www.w3.org/2000/svg" viewBox="0 0 2650 410" width="2650" height="410">
	<style>
		.s0 { fill: #00aaff } 
		.s1 { fill: #ff7700 } 
	</style>
	<path id="AllergenCam" class="s0" aria-label="AllergenCam"  d="m42.8 320q-9.2 0-13.2-7.6-4-7.6-0.8-14.8l117.6-279.2q4.4-10.8 15.2-10.8 10.4 0 14.8 10.8l118 279.6q3.6 7.6-1.2 14.8-4.4 7.2-12.8 7.2-4.8 0-8.8-2.4-3.6-2.4-6-7.2l-110-266.8h12.4l-110.8 266.8q-2 4.8-6 7.2-3.6 2.4-8.4 2.4zm212.8-74.4h-186.4l12-26.8h162.4zm133.8 74.4h-5.2q-16 0-28.8-8.8-12.4-8.8-19.6-24.4-6.8-15.6-6.8-36v-228q0-6.8 4-10.8 4.4-4.4 11.2-4.4 6.8 0 10.8 4.4 4.4 4 4.4 10.8v228q0 17.2 6.8 28 7.2 10.8 18 10.8h10q6 0 9.6 4.4 3.6 4 3.6 10.8 0 6.8-5.2 11.2-4.8 4-12.8 4zm113 0h-5.2q-16 0-28.8-8.8-12.4-8.8-19.6-24.4-6.8-15.6-6.8-36v-228q0-6.8 4-10.8 4.4-4.4 11.2-4.4 6.8 0 10.8 4.4 4.4 4 4.4 10.8v228q0 17.2 6.8 28 7.2 10.8 18 10.8h10q6 0 9.6 4.4 3.6 4 3.6 10.8 0 6.8-5.2 11.2-4.8 4-12.8 4zm147.8 2q-32.4 0-57.6-14-24.8-14.4-39.2-39.6-14-25.2-14-57.6 0-32.8 13.2-57.6 13.6-25.2 37.2-39.6 23.6-14.4 54.4-14.4 30.4 0 52.8 14 22.8 13.6 35.2 38 12.4 24.4 12.4 55.6 0 6.4-4 10.4-4 3.6-10.4 3.6h-170v-25.6h173.2l-17.2 12.4q0.4-23.2-8.4-41.6-8.8-18.4-25.2-28.8-16-10.4-38.4-10.4-22.8 0-40 10.8-17.2 10.8-26.8 30-9.2 18.8-9.2 43.2 0 24.4 10.4 43.2 10.8 18.8 29.2 29.6 18.4 10.8 42.4 10.8 14.4 0 28.8-4.8 14.8-5.2 23.6-12.8 4.4-3.6 10-3.6 5.6-0.4 9.6 2.8 5.2 4.8 5.2 10.4 0.4 5.6-4.4 9.6-13.2 11.2-33.6 18.8-20.4 7.2-39.2 7.2zm176.2-136.8h-17.6q1.2-24.8 12.8-44.4 12-19.6 30.8-30.8 19.2-11.2 42.4-11.2 18.4 0 28.4 5.2 10 5.2 7.6 15.2-1.6 6-5.6 8-3.6 2-9.2 1.6-5.2-0.4-12-0.8-22.4-2-40 4.8-17.2 6.4-27.6 20-10 13.6-10 32.4zm-15.2 134.8q-7.2 0-11.2-4-4-4-4-11.2v-188.4q0-7.2 4-11.2 4-4 11.2-4 7.2 0 11.2 4 4 4 4 11.2v188.4q0 7.2-4 11.2-4 4-11.2 4zm248.2 2q-31.6 0-56-14-24.4-14.4-38.4-39.6-13.6-25.2-13.6-57.6 0-32.8 14.4-58 14.4-25.2 39.6-39.2 25.2-14.4 57.2-14.4 32.4 0 57.2 14.4 25.2 14 39.2 39.2 14.4 25.2 14.8 58l-18 9.6q0 29.6-12.4 52.8-12.4 22.8-34.4 36-21.6 12.8-49.6 12.8zm4 84.4q-31.6 0-55.6-11.6-24-12-39.6-32.4-4.4-4.8-4-10.4 0.8-5.6 6-9.2 5.2-3.6 11.6-2.4 6.4 1.2 10 6 11.6 14.4 29.6 23.2 18.4 8.8 42.4 8.8 22.4 0 40.4-10.8 18-10.8 28.4-30.4 10.8-19.6 10.8-46v-60.8l11.6-23.2 18.8 3.6v81.6q0 32.4-14.4 58.4-14.4 25.6-39.2 40.8-24.8 14.8-56.8 14.8zm-0.8-112.4q23.6 0 41.6-10.4 18.4-10.8 28.8-29.6 10.4-18.8 10.4-43.2 0-24.4-10.4-43.2-10.4-19.2-28.8-29.6-18-10.8-41.6-10.8-23.6 0-42 10.8-18.4 10.4-28.8 29.6-10.4 18.8-10.4 43.2 0 24.4 10.4 43.2 10.4 18.8 28.8 29.6 18.4 10.4 42 10.4zm270.6 28q-32.4 0-57.6-14-24.8-14.4-39.2-39.6-14-25.2-14-57.6 0-32.8 13.2-57.6 13.6-25.2 37.2-39.6 23.6-14.4 54.4-14.4 30.4 0 52.8 14 22.8 13.6 35.2 38 12.4 24.4 12.4 55.6 0 6.4-4 10.4-4 3.6-10.4 3.6h-170v-25.6h173.2l-17.2 12.4q0.4-23.2-8.4-41.6-8.8-18.4-25.2-28.8-16-10.4-38.4-10.4-22.8 0-40 10.8-17.2 10.8-26.8 30-9.2 18.8-9.2 43.2 0 24.4 10.4 43.2 10.8 18.8 29.2 29.6 18.4 10.8 42.4 10.8 14.4 0 28.8-4.8 14.8-5.2 23.6-12.8 4.4-3.6 10-3.6 5.6-0.4 9.6 2.8 5.2 4.8 5.2 10.4 0.4 5.6-4.4 9.6-13.2 11.2-33.6 18.8-20.4 7.2-39.2 7.2zm334.4-2q-6.8 0-11.2-4.4-4.4-4.4-4.4-10.8v-104q0-24.8-9.6-40.8-9.2-16-25.6-24-16-8-36.4-8-19.6 0-35.6 7.6-15.6 7.6-24.8 20.8-9.2 13.2-9.2 30h-22q0.8-25.2 13.6-44.8 12.8-20 34-31.2 21.2-11.6 47.2-11.6 28.4 0 50.8 12 22.4 11.6 35.2 34.4 13.2 22.8 13.2 55.6v104q0 6.4-4.4 10.8-4.4 4.4-10.8 4.4zm-172 0q-7.2 0-11.6-4-4-4.4-4-11.2v-188q0-7.2 4-11.2 4.4-4.4 11.6-4.4 6.8 0 10.8 4.4 4.4 4 4.4 11.2v188q0 6.8-4.4 11.2-4 4-10.8 4z"/>
	<path id="AllergenCam" class="s1" aria-label="AllergenCam"  d="m1895.4 324q-32.4 0-60.8-12.4-28-12.4-49.6-34.4-21.2-22.4-33.2-51.2-12-29.2-12-62.4 0-32.8 11.6-61.6 12-29.2 33.2-51.2 21.6-22 49.6-34.4 28.4-12.8 61.2-12.8 28.8 0 52.4 8.4 23.6 8.4 45.6 26.8 3.6 2.8 4 6.8 0.8 3.6-0.8 7.2-1.6 3.2-4.8 4.8-0.8 3.2-4 4.8-3.2 1.6-7.6 1.2-4-0.4-8-3.6-15.6-13.6-34-20-18.4-6.8-42.8-6.8-26 0-48.8 10.4-22.4 10.4-39.6 28.4-17.2 18-27.2 41.6-9.6 23.6-9.6 50 0 27.2 9.6 50.8 10 23.6 27.2 41.6 17.2 18 39.6 28.4 22.8 10 48.8 10 22 0 41.6-7.2 19.6-7.2 37.2-20.8 4.8-4 10-3.2 5.6 0.8 9.6 4.8 4 4 4 10.4 0 3.2-1.2 6-0.8 2.4-3.2 5.2-20.4 18.8-45.6 26.8-25.2 7.6-52.4 7.6zm243-2q-30.8 0-55.2-14.4-24.4-14.8-38.8-40-14-25.2-14-56.8 0-32 14.4-57.2 14.8-25.2 40-39.6 25.2-14.8 56.8-14.8 31.6 0 56.4 14.8 25.2 14.4 39.6 39.6 14.8 25.2 15.2 57.2l-12.4 9.6q0 28.8-13.6 52-13.2 22.8-36.4 36.4-22.8 13.2-52 13.2zm3.2-28q23.2 0 41.2-10.8 18.4-10.8 28.8-29.6 10.8-19.2 10.8-42.8 0-24-10.8-42.8-10.4-18.8-28.8-29.6-18-11.2-41.2-11.2-22.8 0-41.2 11.2-18.4 10.8-29.2 29.6-10.8 18.8-10.8 42.8 0 23.6 10.8 42.8 10.8 18.8 29.2 29.6 18.4 10.8 41.2 10.8zm95.6 26q-6.8 0-11.2-4-4.4-4.4-4.4-11.2v-68.4l7.6-31.6 23.6 6v94q0 6.8-4.4 11.2-4.4 4-11.2 4zm371.4 0q-6.8 0-11.2-4-4.4-4.4-4.4-11.2v-115.2q0-28.4-14.8-44.8-14.8-16.8-38-16.8-24.8 0-40.8 16.8-15.6 16.4-15.2 44h-27.6q0.4-26.8 11.6-47.2 11.2-20.4 30.8-31.6 19.6-11.2 44.4-11.2 23.6 0 41.6 11.2 18.4 11.2 28.4 31.6 10.4 20.4 10.4 48v115.2q0 6.8-4.4 11.2-4 4-10.8 4zm-280 0q-7.2 0-11.6-4-4-4.4-4-11.2v-188q0-6.8 4-11.2 4.4-4.4 11.6-4.4 6.8 0 10.8 4.4 4.4 4.4 4.4 11.2v188q0 6.8-4.4 11.2-4 4-10.8 4zm140.4 0q-6.8 0-11.2-4-4.4-4.4-4.4-11.2v-115.2q0-28.4-14.8-44.8-14.8-16.8-38-16.8-24.8 0-40.8 16.4-16 16-16 42h-22q0.8-25.6 11.2-45.2 10.8-20 29.2-31.2 18.4-11.2 41.6-11.2 23.6 0 41.6 11.2 18.4 11.2 28.4 31.6 10.4 20.4 10.4 48v115.2q0 6.8-4.4 11.2-4 4-10.8 4z"/>
</svg>
