<svg version="1.2" xmlns="http://www.w3.org/2000/svg" viewBox="0 0 2133 400" width="2133" height="400">
	<style>
		.s0 { fill: #ff0000 } 
		.s1 { fill: #1a60ff } 
	</style>
	<path id="AllergenCam" class="s0" aria-label="AllergenCam"  d="m130.2 7.7l-0.2 26.8-82.9 276.5h-39.1l97.7-303.3zm106 303.3h-39.2l-82.9-276.5-0.4-26.8h24.8zm-185.4-112.3h146.2v32.9h-146.2zm224.7-207.7h36.7v320h-36.7zm98 0h36.7v320h-36.7zm175.7 324.1q-20.2 0-36.4-6-16.3-6-27.7-18.3-11.5-12.5-17.5-31.5-6.1-18.9-6.1-44.8v-25.4q0-29.8 6.9-50.4 7.1-20.6 19-33.1 11.9-12.7 26.8-18.4 15-5.8 30.9-5.8 21.2 0 36.2 6.9 15 6.8 24.4 20.4 9.4 13.5 13.7 33.3 4.6 19.8 4.6 45.6v21.5h-140.8v-31.5h104v-5.2q-0.9-17.5-4.8-30.8-3.8-13.3-12.5-20.8-8.8-7.7-24.8-7.7-10.2 0-19 3.5-8.5 3.3-14.8 11.9-6 8.3-9.5 23.1-3.4 14.8-3.4 37.5v25.4q0 18.1 3.4 31.3 3.5 12.9 10.2 21.4 6.8 8.4 16.6 12.5 10 4 22.7 4 18.6 0 30.6-7.1 12.1-7.3 21.1-18.5l19.4 23.1q-6.1 8.5-15.9 16.4-9.6 7.8-23.7 12.8-14 4.7-33.6 4.7zm155.1-229.5l1.2 35.4v190h-36.9v-225.4zm57.3-1.3l0.2 35.8q-4.6-1-8.3-1.2-3.6-0.4-8.3-0.4-10.5 0-18.4 4.1-7.7 4.2-13.3 11.7-5.6 7.5-9 17.9-3.3 10.2-4.5 22.5l-9.6 6.3q0-20.4 3.1-38.4 3.3-17.9 10.2-31.6 6.9-14 17.5-21.7 10.8-7.9 25.8-7.9 3.4 0 8.2 1 5 0.9 6.4 1.9zm151.6 50.8l3.6-49.5h33.1v227.3q0 29.7-10.4 49.1-10.2 19.4-28.6 28.8-18.3 9.1-42.2 9.1-8.6 0-21.5-3.1-12.9-3.1-25.8-9.4-12.9-6.4-21.3-16l15.2-25.6q11.9 12.1 25.2 17.3 13.4 5.2 25.5 5.2 14.3 0 24.9-5.2 10.7-5.2 16.5-16.9 5.8-11.9 5.8-31.5zm-126 74v-21.1q0-27.9 5.2-47.9 5.2-20.2 15-33.1 10-13.1 24-19.4 13.9-6.2 31.2-6.2 17.5 0 30.2 7.1 12.7 7 21.1 20.6 8.5 13.3 13.3 32.5 5 18.9 6.9 42.9v28.1q-1.9 23.8-6.9 42.7-4.8 19-13.5 32.3-8.6 13.4-21.3 20.4-12.7 7.1-30.2 7.1-17.1 0-30.8-6.4-13.8-6.7-23.8-19.8-9.8-13.4-15.2-33.1-5.2-20-5.2-46.7zm36.9-21.1v21.1q0 18.7 2.7 32.7 2.7 13.7 8.3 22.9 5.9 9 14.8 13.3 9.2 4.4 21.9 4.4 15.4 0 25.2-7.5 9.8-7.5 15.6-19.8 6.1-12.5 9.6-26.8v-59.2q-2.1-10.6-6-20.4-3.8-10-9.8-17.7-6.1-8-14.6-12.5-8.4-4.6-19.6-4.6-12.7 0-21.9 4.6-9.1 4.5-15 13.7-5.8 9.2-8.5 23.1-2.7 14-2.7 32.7zm261.2 127.1q-20.2 0-36.4-6-16.3-6.1-27.7-18.3-11.5-12.5-17.5-31.5-6.1-19-6.1-44.8v-25.4q0-29.8 6.9-50.4 7.1-20.7 19-33.2 11.8-12.7 26.8-18.3 15-5.8 30.9-5.8 21.2 0 36.2 6.9 15 6.8 24.4 20.4 9.3 13.5 13.7 33.3 4.6 19.8 4.6 45.6v21.5h-140.8v-31.5h103.9v-5.2q-0.8-17.5-4.8-30.8-3.7-13.3-12.5-20.8-8.7-7.8-24.7-7.8-10.2 0-19 3.6-8.5 3.3-14.8 11.9-6 8.3-9.6 23.1-3.3 14.8-3.3 37.5v25.4q0 18.1 3.3 31.3 3.6 12.9 10.2 21.4 6.9 8.3 16.7 12.5 10 4 22.7 4 18.5 0 30.6-7.1 12.1-7.3 21.1-18.6l19.3 23.2q-6 8.5-15.8 16.4-9.6 7.7-23.7 12.7-14 4.8-33.6 4.8zm154.2-229.6l2.1 48.2v177.3h-36.9v-225.5zm-6.9 104.2l-15-0.6q-0.2-23.1 5.2-42.7 5.7-19.8 15.9-34.4 10.4-14.6 24.8-22.5 14.3-8.1 31.8-8.1 13.8 0 25 4.6 11.3 4.3 19.2 14.1 7.9 9.8 12.1 25.4 4.4 15.5 4.4 37.8v147.7h-36.9v-148.2q0-17.7-4-28.3-3.7-10.8-11.6-15.6-7.7-5-19.6-5-10.9 0-20.2 6-9.4 6.1-16.5 16.7-6.9 10.6-10.8 24.4-3.8 13.5-3.8 28.7z"/>
	<path id="AllergenCam" class="s1" aria-label="AllergenCam"  d="m1568.6 214.5h38.3q-1.5 31.3-12.7 54-11.1 22.5-32.3 34.6-21 12.1-52.7 12.1-22.7 0-41-9-18.4-9-31.5-25.6-12.9-16.9-19.8-40.4-6.9-23.6-6.9-53v-56q0-29.2 6.9-52.7 7.1-23.5 20.2-40.2 13.3-16.9 32.3-25.8 19.2-9 43.3-9 29.6 0 50 11.9 20.6 11.6 31.7 34.4 11.2 22.5 12.5 55.2h-38.3q-1.5-24-7.5-39-6.1-15.2-18-22.3-11.6-7.3-30.4-7.3-16.6 0-28.9 6.7-12.1 6.7-20 19.2-7.7 12.2-11.7 29.7-3.7 17.3-3.7 38.8v56.5q0 20 3.1 37.2 3.3 17.3 10.4 30.5 7.3 12.9 19 20.2 11.6 7.3 28.3 7.3 21 0 33.3-6.9 12.3-6.9 18.1-21.9 6.1-15 8-39.2zm195.5 58v-122.3q0-13.4-4.2-21.5-3.9-8.1-12-11.9-8-3.7-20-3.7-11.7 0-20.2 4.8-8.4 4.8-13 12.7-4.3 7.9-4.3 17.5h-36.9q0-12.1 5.2-24 5.4-11.8 15.4-21.4 10-9.8 24-15.4 14.1-5.9 31.6-5.9 20.9 0 36.9 6.9 16 6.7 25.2 21.9 9.2 15.2 9.2 40.4v111.2q0 11.3 1.6 24 1.9 12.7 5.2 21.9v3.3h-38.1q-2.7-6.7-4.1-17.7-1.5-11.3-1.5-20.8zm-25.4-98.2h31.2l0.5 27.1h-25.7q-13.1 0-23.9 2.9-10.6 3-18.4 8.6-7.7 5.4-11.8 13.5-4 8.1-4 18.6 0 13.5 3.8 21.6 3.7 7.9 11.2 11.5 7.5 3.5 19 3.5 13.9 0 24.5-6.4 10.7-6.5 16.5-15.7 6-9.1 5.6-17l8.2 17.3q-0.9 8.1-5.5 17.7-4.3 9.3-12.3 18.1-7.9 8.5-18.7 14.2-10.6 5.4-24 5.4-19.5 0-34.3-7.5-14.6-7.5-22.7-22.1-8.2-14.6-8.2-36.1 0-16.2 5.7-30 5.6-13.7 16.6-23.7 11.1-10.2 27.7-15.8 16.9-5.7 39-5.7zm153.8-88.7l2.1 44.8v180.6h-36.7v-225.4zm-5.4 104.2l-17.1-0.7q-0.2-23.1 4.6-42.7 4.8-19.8 14.4-34.4 9.8-14.5 24.3-22.5 14.8-8.1 34.4-8.1 12.9 0 24 4.6 11.2 4.4 19.5 14 8.4 9.5 13 24.5 4.8 15 4.8 36.3v150.2h-36.9v-148.3q0-17.7-4.8-28.4-4.6-10.6-13.1-15.4-8.6-5-20.4-5-13.6 0-22.7 6.1-9 6-14.4 16.6-5.2 10.7-7.5 24.4-2.1 13.5-2.1 28.8zm121.4-21.3l-24.5 7.9q-0.3-18.5 4.5-35.6 4.8-17.1 14.2-30.4 9.6-13.4 23.7-21.1 14.2-7.9 33-7.9 15.4 0 27.2 4.8 11.9 4.8 20 14.8 8.4 9.8 12.5 25.2 4.2 15.4 4.2 36.7v148.1h-36.9v-148.5q0-19-4.8-29.4-4.5-10.6-13.1-14.8-8.5-4.4-20.4-4.4-9.6 0-17.1 4.4-7.3 4.4-12.3 12.1-5 7.5-7.7 17.3-2.5 9.8-2.5 20.8z"/>
</svg>