<svg version="1.2" xmlns="http://www.w3.org/2000/svg" viewBox="0 0 512 512" width="512" height="512">
	<style>
		.s0 { fill: #ff7700 } 
		.s1 { fill: #00aaff } 
	</style>
	<path id="C" class="s0" aria-label="C"  d="m253.2 516.5q-52.7 0-98.8-20.1-45.5-20.2-80.6-56-34.5-36.3-54-83.2-19.5-47.4-19.5-101.3 0-53.3 18.9-100.2 19.5-47.4 53.9-83.1 35.1-35.8 80.6-56 46.2-20.7 99.5-20.7 46.8 0 85.1 13.6 38.4 13.6 74.1 43.6 5.9 4.5 6.5 11 1.3 5.8-1.3 11.7-2.6 5.2-7.8 7.8-1.3 5.2-6.5 7.8-5.2 2.6-12.3 1.9-6.5-0.6-13-5.8-25.4-22.1-55.3-32.5-29.9-11.1-69.5-11.1-42.3 0-79.3 16.9-36.4 16.9-64.4 46.2-27.9 29.2-44.2 67.6-15.6 38.3-15.6 81.3 0 44.1 15.6 82.5 16.3 38.4 44.2 67.6 28 29.3 64.4 46.1 37 16.3 79.3 16.3 35.7 0 67.6-11.7 31.8-11.7 60.4-33.8 7.8-6.5 16.3-5.2 9.1 1.3 15.6 7.8 6.5 6.5 6.5 16.9 0 5.2-2 9.7-1.3 4-5.2 8.5-33.1 30.5-74.1 43.5-40.9 12.4-85.1 12.4z"/>
	<path id="A" class="s1" aria-label="A"  d="m136.8 412q-9.2 0-13.2-7.6-4-7.6-0.8-14.8l117.6-279.2q4.4-10.8 15.2-10.8 10.4 0 14.8 10.8l118 279.6q3.6 7.6-1.2 14.8-4.4 7.2-12.8 7.2-4.8 0-8.8-2.4-3.6-2.4-6-7.2l-110-266.8h12.4l-110.8 266.8q-2 4.8-6 7.2-3.6 2.4-8.4 2.4zm212.8-74.4h-186.4l12-26.8h162.4z"/>
</svg>